<svg width="40" height="40" viewBox="0 0 40 40" fill="none" xmlns="http://www.w3.org/2000/svg">
<rect width="40" height="40">
<path d="M33.9272 15.6452V31.5714C33.9272 31.9186 33.6458 32.2 33.2987 32.2H6.70128C6.35413 32.2 6.07271 31.9186 6.07271 31.5714V15.6452C6.07271 15.4244 6.18855 15.2198 6.37788 15.1062L19.6766 7.12699C19.8756 7.00756 20.1243 7.00756 20.3234 7.12699L20.735 6.441L20.3234 7.12699L33.6221 15.1062C33.8114 15.2198 33.9272 15.4244 33.9272 15.6452Z" stroke="#181818" stroke-width="1.6"/>
<path d="M13 11L13 32" stroke="#181818" stroke-width="1.6"/>
<path d="M20 7L20 32" stroke="#181818" stroke-width="1.6"/>
<path d="M27 11L27 32" stroke="#181818" stroke-width="1.6"/>
<path d="M6 23H34" stroke="#181818" stroke-width="1.6"/>
</svg>
