<svg width="40" height="40" viewBox="0 0 40 40" fill="none" xmlns="http://www.w3.org/2000/svg">
<path d="M33.7714 17.4286V28.1429C33.7714 28.49 33.49 28.7714 33.1429 28.7714H7.42857C7.08142 28.7714 6.8 28.49 6.8 28.1429V17.4286C6.8 17.0814 7.08142 16.8 7.42857 16.8H33.1429C33.49 16.8 33.7714 17.0814 33.7714 17.4286Z" stroke="#181818" stroke-width="1.6"/>
<path d="M14.2143 12.4286L13.7518 11.5037C13.3772 10.7544 13.4474 9.85933 13.9343 9.1776V9.1776C14.5225 8.35416 14.4922 7.24023 13.86 6.45005L13.5 6" stroke="#181818" stroke-width="1.6"/>
<path d="M20.2857 12.4286L19.8233 11.5037C19.4486 10.7544 19.5189 9.85933 20.0058 9.1776V9.1776C20.594 8.35416 20.5636 7.24023 19.9315 6.45005L19.5714 6" stroke="#181818" stroke-width="1.6"/>
<path d="M26.3571 12.4286L25.8947 11.5037C25.52 10.7544 25.5903 9.85933 26.0772 9.1776V9.1776C26.6654 8.35416 26.635 7.24023 26.0029 6.45005L25.6428 6" stroke="#181818" stroke-width="1.6"/>
<path d="M9.57141 28.1428V33.1428M31 30.2857V28.1428V33.1428" stroke="#181818" stroke-width="1.6"/>
<circle cx="11.7143" cy="21" r="1.34286" stroke="#181818" stroke-width="1.6"/>
<circle cx="17.4286" cy="21" r="1.34286" stroke="#181818" stroke-width="1.6"/>
<circle cx="23.1429" cy="21" r="1.34286" stroke="#181818" stroke-width="1.6"/>
<circle cx="28.8572" cy="21" r="1.34286" stroke="#181818" stroke-width="1.6"/>
</svg>
